<svg xmlns="http://www.w3.org/2000/svg" xmlns:xlink="http://www.w3.org/1999/xlink" xmlns:inkscape="http://www.inkscape.org/namespaces/inkscape" version="1.1" width="595.276" height="841.89" viewBox="0 0 595.276 841.89">
<defs>
<clipPath id="clip_1">
<path transform="matrix(1,0,0,-1,0,841.89)" d="M0 841.89H595.276V0H0Z"/>
</clipPath>
</defs>
<g inkscape:groupmode="layer" inkscape:label="Layer 1">
<g clip-path="url(#clip_1)">
<path transform="matrix(1,0,0,-1,323.616,430.9049)" d="M0 0H-109.737C-110.645 0-111.385-.739-111.385-1.648V-12.272C-111.385-13.18-110.645-13.92-109.737-13.92H-107.477L-106.731-53.061-105.985-13.92H-78.794V-12.415H-109.737C-109.816-12.415-109.88-12.351-109.88-12.272V-1.648C-109.88-1.569-109.816-1.505-109.737-1.505H0C.079-1.505 .143-1.569 .143-1.648V-12.272C.143-12.351 .079-12.415 0-12.415H-31.261V-13.92H-3.35L-2.605-53.061-1.859-13.92H0C.908-13.92 1.648-13.18 1.648-12.272V-1.648C1.648-.739 .908 0 0 0" fill="#d2a562"/>
<path transform="matrix(1,0,0,-1,291.634,423.8955)" d="M0 0C-2.518-2.157-5.799-3.381-9.029-4.304-9.641-4.484-10.253-4.635-10.865-4.785-13.132-5.317-16.272-5.879-20.104-6.039-20.074-5.899-20.034-5.578-20.195-5.217-20.345-4.856-20.596-4.655-20.716-4.565-20.084-3.732-19.141-2.548-17.897-1.214-15.7 1.164-13.333 3.401-10.433 5.046-7.675 6.621-4.003 8.146-.672 7.333 .281 7.103 1.224 6.641 1.746 5.839 3 3.933 1.545 1.334 0 0M-27.147-4.575C-27.317-4.976-27.277-5.327-27.247-5.478-31.16-5.277-34.36-4.615-36.667-4.013-37.299-3.842-37.921-3.662-38.533-3.461-41.834-2.408-45.164-1.023-47.713 1.384-49.288 2.859-50.752 5.748-49.458 7.845-48.906 8.718-47.943 9.22-46.96 9.46-43.569 10.333-39.827 8.608-37.028 6.852-34.079 5.006-31.681 2.508-29.454-.13-28.2-1.615-27.247-2.929-26.615-3.862-26.736-3.953-26.996-4.183-27.147-4.575M4.334 4.575C4.043 6.4 3.1 8.166 1.575 9.209 .341 10.052-1.194 10.373-2.689 10.353-6.802 10.293-10.624 8.206-13.744 5.658-15.49 4.244-16.784 2.869-17.737 1.836-19.362 .06-20.576-1.565-21.439-2.789-21.77-2.608-22.432-2.307-23.325-2.277-24.358-2.247-25.14-2.608-25.482-2.789-26.304-1.324-27.518 .612-29.213 2.709-32.012 6.17-35.423 9.44-39.506 11.336-42.677 12.821-46.83 13.042-49.679 10.734-54.364 6.952-52.227 .401-47.973-2.669-44.352-5.267-40.058-6.3-35.694-6.832-34.019-7.033-32.353-7.163-30.668-7.293-30.939-7.293-31.551-8.086-31.782-8.246-32.193-8.517-32.715-8.678-33.156-8.898-40.77-12.61-45.526-20.536-47.372-28.571-48.004-31.31-48.335-34.149-48.224-36.958-48.144-39.125-47.803-42.265-46.589-45.887-45.887-44.833-45.034-43.69-44.001-42.506-43.148-41.523-42.295-40.66-41.503-39.918-41.934-38.302-42.446-35.865-42.526-32.885-42.737-25.552-40.379-17.697-34.811-12.671-32.012-10.132-29.113-8.929-27.347-8.347V-22.221C-26.996-21.83-26.154-20.997-24.799-20.646-24.458-20.566-23.816-20.395-23.034-20.516-21.298-20.796-20.305-22.271-20.084-22.612V-8.347C-18.409-8.898-15.66-10.032-12.951-12.41-6.952-17.666-5.377-25.241-5.658-32.885-5.718-34.43-5.859-35.714-5.989-36.617-5.287-37.018-4.434-37.59-3.561-38.413-2.388-39.526-1.645-40.67-1.174-41.523-.702-39.496-.341-37.048-.361-34.26-.411-25.1-4.203-16.423-11.677-10.945-13.052-9.942-14.506-9.059-16.031-8.317-12.5-7.975-9.601-7.414-7.474-6.932-3.24-5.949 1.816-4.264 3.772 .03 4.404 1.445 4.585 3.05 4.334 4.575" fill="#d2a562"/>
<path transform="matrix(1,0,0,-1,198.9928,500.10124)" d="M0 0C0-.484 .243-.727 .729-.727H10.466C11.274-.727 11.681-1.155 11.681-2.01V-2.455C11.681-3.31 11.274-3.736 10.466-3.736H-1.505C-2.314-3.736-2.717-3.331-2.717-2.524V3.349 8.3 78.968C-2.717 79.777-2.314 80.182-1.505 80.182H13.298C14.105 80.182 14.512 79.754 14.512 78.9V78.504C14.512 77.617 14.105 77.173 13.298 77.173H10.823 .729C.243 77.173 0 76.93 0 76.446V48.386Z" fill="#414143"/>
<path transform="matrix(1,0,0,-1,214.432,489.90974)" d="M0 0C0 .81 .405 1.214 1.212 1.214H8.59C9.398 1.214 9.802 .786 9.802-.069V-.513C9.802-1.368 9.398-1.795 8.59-1.795H3.446C2.926-1.829 2.686-2.069 2.717-2.524V-5.774-12.715C2.717-13.523 2.336-13.928 1.574-13.928H1.193C.397-13.928 0-13.507 0-12.666Z" fill="#414143"/>
<path transform="matrix(1,0,0,-1,229.6339,493.59654)" d="M0 0V-.486C0-.972 .241-1.214 .725-1.214H7.381C7.863-1.214 8.104-.972 8.104-.486V1.163C8.104 1.649 7.865 1.892 7.385 1.892H.721C.241 1.892 0 1.649 0 1.163ZM0-6.552C0-7.038 .241-7.281 .721-7.281H9.571C10.438-7.281 10.839-7.701 10.774-8.543V-8.689-8.833-8.979C10.806-9.303 10.693-9.593 10.434-9.852 10.176-10.112 9.883-10.241 9.561-10.241H-1.552C-2.362-10.241-2.767-9.836-2.767-9.028V3.687C-2.767 4.496-2.362 4.901-1.552 4.901H9.609C10.419 4.901 10.823 4.496 10.823 3.687V-3.059C10.823-3.866 10.42-4.271 9.615-4.271H.725C.241-4.271 0-4.514 0-5Z" fill="#414143"/>
<path transform="matrix(1,0,0,-1,251.2785,500.8279)" d="M0 0H3.203C3.687 .032 3.93 .275 3.93 .727V1.649 2.281C3.93 2.767 3.687 3.007 3.203 3.007H-.243-3.446C-3.932 3.007-4.174 2.767-4.174 2.281V.727C-4.174 .275-3.932 .032-3.446 0ZM6.696-1.797C6.696-2.605 6.291-3.009 5.484-3.009H-5.679C-6.489-3.009-6.892-2.603-6.892-1.789V5.334C-6.892 5.821-6.651 6.066-6.167 6.066H3.205C3.689 6.066 3.93 6.301 3.93 6.771V8.369C3.93 8.839 3.689 9.074 3.205 9.074H-5.636C-5.991 9.074-6.289 9.204-6.53 9.463-6.771 9.721-6.876 10.012-6.844 10.336V10.482 10.725 10.871C-6.909 11.712-6.505 12.133-5.63 12.133H5.484C6.291 12.133 6.696 11.728 6.696 10.918Z" fill="#414143"/>
<path transform="matrix(1,0,0,-1,268.9831,487.96864)" d="M0 0C0-.484 .243-.727 .727-.727H4.173C4.982-.727 5.387-1.155 5.387-2.01V-2.455C5.387-3.31 4.982-3.736 4.173-3.736H.727C.243-3.736 0-3.979 0-4.465V-14.557C0-15.367-.389-15.772-1.165-15.772H-1.554C-2.33-15.772-2.717-15.367-2.717-14.557V-4.465C-2.717-3.979-2.96-3.736-3.446-3.736H-6.892C-7.733-3.736-8.154-3.31-8.154-2.455V-2.01C-8.154-1.155-7.733-.727-6.892-.727H-3.446C-2.96-.727-2.717-.484-2.717 0V.922 39.726C-2.717 40.535-2.33 40.94-1.554 40.94H-1.165C-.389 40.94 0 40.535 0 39.726Z" fill="#414143"/>
<path transform="matrix(1,0,0,-1,283.3405,502.77174)" d="M0 0C0-.81-.387-1.212-1.165-1.212H-1.552C-2.328-1.212-2.717-.81-2.717 0V12.666C-2.717 13.507-2.328 13.928-1.552 13.928H-1.165C-.387 13.928 0 13.507 0 12.666ZM3.059 20.48C3.059 19.056 2.62 17.745 1.748 16.548 .744 15.221-.484 14.559-1.941 14.559-2.976 14.559-3.947 14.899-4.852 15.578-5.758 16.258-6.21 17.115-6.21 18.149-6.21 19.249-5.677 20.464-4.609 21.791-4.222 22.243-3.574 22.47-2.668 22.47-1.925 22.47-1.552 22.113-1.552 21.402-1.552 21.046-1.586 20.835-1.649 20.772-1.91 20.576-2.265 20.221-2.717 19.704-3.041 19.121-3.203 18.588-3.203 18.102-3.203 17.326-2.879 16.937-2.231 16.937-1.487 16.937-.891 17.454-.436 18.489-.113 19.267 .049 19.978 .049 20.626 .049 21.271 .016 21.71-.047 21.935-.081 22-.324 22.452-.776 23.294-1.327 23.941-2.135 24.944-3.203 26.303-6.406 30.736-8.606 34.279-9.802 36.931L-10.239 37.853C-11.145 39.859-11.597 41.591-11.597 43.046-11.597 46.67-10.61 48.53-8.637 48.627-8.572 48.627-8.426 48.659-8.201 48.724-7.974 48.789-7.828 48.82-7.765 48.82-7.603 48.82-7.352 48.708-7.012 48.481-6.673 48.256-6.503 48.06-6.503 47.898V46.879C-6.858 46.814-7.328 46.654-7.911 46.396-8.556 45.975-8.88 44.938-8.88 43.289-8.88 43.159-8.833 42.997-8.734 42.804-8.864 41.51-8.201 39.454-6.746 36.641-5.515 34.279-4.303 32.223-3.106 30.477-3.007 30.412-2.895 30.298-2.767 30.138-2.474 29.684-1.147 27.954 1.214 24.944 2.443 23.359 3.059 21.87 3.059 20.48" fill="#414143"/>
<path transform="matrix(1,0,0,-1,298.7908,500.10124)" d="M0 0V7.668C0 8.154-.243 8.396-.727 8.396H-7.375C-7.861 8.396-8.104 8.154-8.104 7.668V0C-8.104-.484-7.861-.727-7.375-.727H-.727C-.243-.727 0-.484 0 0M2.717-2.524C2.717-3.331 2.312-3.736 1.505-3.736H-9.609C-10.419-3.736-10.821-3.331-10.821-2.524V10.191C-10.821 11.001-10.419 11.406-9.609 11.406H1.505C2.312 11.406 2.717 11.001 2.717 10.191Z" fill="#414143"/>
<path transform="matrix(1,0,0,-1,317.4691,488.6953)" d="M0 0C.808 0 1.212-.405 1.212-1.214V-13.93C1.212-14.737 .825-15.142 .049-15.142H-.34C-1.116-15.142-1.505-14.737-1.505-13.93V-3.738C-1.505-3.252-1.748-3.009-2.231-3.009H-8.88C-9.366-3.009-9.609-3.252-9.609-3.738V-13.93C-9.609-14.737-9.998-15.142-10.774-15.142H-11.161C-11.939-15.142-12.326-14.737-12.326-13.93V-1.214C-12.326-.405-11.923 0-11.114 0Z" fill="#414143"/>
<path transform="matrix(1,0,0,-1,325.5176,491.7048)" d="M0 0C-.486 0-.729-.243-.729-.729V-2.378C-.729-2.863-.486-3.106 0-3.106H9.415C9.899-3.106 10.142-3.349 10.142-3.835V-10.92C10.142-11.728 9.735-12.133 8.924-12.133H-2.227C-2.553-12.133-2.846-12.002-3.106-11.738-3.365-11.475-3.479-11.179-3.446-10.851V-10.703-10.555-10.407C-3.511-9.552-3.106-9.123-2.233-9.123H6.696C7.182-9.123 7.425-8.88 7.425-8.396V-6.842C7.425-6.357 7.182-6.116 6.696-6.116H-2.233C-3.041-6.116-3.446-5.713-3.446-4.907V1.801C-3.446 2.607-3.041 3.009-2.233 3.009H8.88C9.787 3.009 10.207 2.595 10.142 1.767V1.623 1.386 1.242C10.174 .924 10.061 .638 9.802 .383 9.544 .128 9.236 0 8.88 0Z" fill="#414143"/>
<path transform="matrix(1,0,0,-1,346.4314,486.9931)" d="M0 0V-.924C0-1.412 .243-1.655 .725-1.655L6.076-1.702H8.809C9.291-1.702 9.532-1.459 9.532-.976V52.784C9.5 53.592 9.889 53.997 10.697 53.997H11.086C11.862 53.997 12.251 53.592 12.251 52.784L12.299-15.679C12.299-16.489 11.894-16.894 11.086-16.894H10.746C9.937-16.894 9.532-16.489 9.532-15.679V-5.44C9.532-4.955 9.289-4.712 8.801-4.712H.733C.245-4.712 0-4.957 0-5.442V-15.675C0-16.487-.381-16.894-1.143-16.894H-1.524C-2.287-16.894-2.668-16.489-2.668-15.677V35.108L-2.717 59.327V60.786C-2.717 61.598-2.328 62.003-1.552 62.003H-1.163C-.387 62.003 0 61.598 0 60.786Z" fill="#414143"/>
<path transform="matrix(1,0,0,-1,366.8653,503.8373)" d="M0 0C-.81 0-1.212 .405-1.212 1.212V13.928C-1.212 14.737-.825 15.142-.047 15.142H.34C1.116 15.142 1.505 14.737 1.505 13.928V3.736C1.505 3.252 1.748 3.009 2.233 3.009H8.882C9.366 3.009 9.609 3.252 9.609 3.736V13.928C9.609 14.737 9.998 15.142 10.774 15.142H11.163C11.939 15.142 12.326 14.737 12.326 13.928V1.212C12.326 .405 11.921 0 11.114 0Z" fill="#414143"/>
<path transform="matrix(1,0,0,-1,388.1767,492.4334)" d="M0 0V-7.668C0-8.152 .243-8.394 .729-8.394H7.377C7.863-8.394 8.106-8.152 8.106-7.668V0C8.106 .486 7.863 .729 7.377 .729H.729C.243 .729 0 .486 0 0M0 5.873V4.951C0 4.141 .407 3.738 1.22 3.738H9.605C10.417 3.738 10.823 3.333 10.823 2.524V-10.191C10.823-10.999 10.418-11.404 9.609-11.404H-1.503C-2.312-11.404-2.717-10.999-2.717-10.191V58.159C-2.717 58.967-2.328 59.372-1.552 59.372H-1.163C-.387 59.372 0 58.967 0 58.159Z" fill="#414143"/>
<path transform="matrix(1,0,0,-1,196.2756,408.17863)" d="M0 0 .002 1.094C2.237 1.397 5.556 1.499 6.424 3.986 10.926 22.753 13.827 42.249 18.517 60.932 19.273 63.943 20.605 69.469 24.27 70.082 31.934 71.363 34.297 65.336 35.88 59.221 39.727 44.358 41.77 28.628 45.6 13.711 46.779 9.46 49.088 9.73 50.347 13.76 54.194 29.297 56.861 45.213 60.816 60.712 62.283 66.46 63.78 71.939 71.224 69.799 75.787 68.487 77.531 62.179 78.574 58.082 83.106 40.28 85.824 21.614 90.189 3.728 90.979 1.461 94.596 1.292 96.654 1.097L96.653 0H75.174L75.177 1.094C76.993 1.342 80.612 1.28 80.44 3.824 76.044 21.862 73.5 40.797 68.931 58.74 68.472 60.541 67.796 63.353 66.621 64.758 65.437 66.174 64.305 66.214 63.294 64.59 58.555 47.695 55.896 30.18 51.617 13.147 50.57 8.98 49.314 3.767 43.935 4.157 38.197 4.574 36.458 12.577 35.393 17.092 31.957 31.65 29.604 46.486 26.068 61.025 25.271 64.372 22.368 68.723 20.445 63.167L7.732 3.795C7.701 1.738 12.268 1.171 13.809 1.097L13.808 0Z" fill="#414143"/>
<path transform="matrix(1,0,0,-1,310.212,408.1849)" d="M0 0V1.437C.195 1.418 2.725 1.192 3.65 2.213 3.909 2.5 4.018 2.813 4.018 2.813 4.287 3.554 3.938 4.258 3.839 4.443-.664 11.29-4.679 16.127-7.221 19.615-9.211 22.344-11.201 25.074-13.191 27.803-14.995 30.278-17.618 32.936-17.56 36.165-17.484 40.401-13.151 44.044-10.215 46.612-7.182 49.264-3.912 51.608-.682 54.007 1.733 55.802 5.139 57.721 7.289 59.624 8.734 60.903 9.192 62.222 6.663 62.004 4.283 61.799-12.085 57.372-23.896 36.675-25.754 33.418-26.979 30.673-27.61 29.187-27.64 29.816-27.67 30.444-27.7 31.073-27.266 32.289-26.397 34.612-25.071 37.412-15.659 57.292 2.641 70.157 13.869 70.161 18.855 70.162 21.918 67.356 17.369 63.352 13.301 59.773 8.565 56.967 4.261 53.687 .126 50.536-4.677 46.805-6.549 41.717-8.906 35.31-3.49 29.655 .039 24.856 2.075 22.089 4.172 19.368 6.263 16.643 8.21 14.105 10.154 11.564 12.039 8.979 13.506 6.965 14.843 4.735 16.968 3.335 19.23 1.845 22.083 1.529 24.719 1.323L24.717 .006C16.478 .004 8.239 .002 0 0" fill="#0db8a6"/>
</g>
</g>
</svg>
